HIERARCHY
ROOT Hips
{
	OFFSET	0.000000	0.000000	0.000000
	CHANNELS 6 Xposition Yposition Zposition Zrotation Xrotation Yrotation
	JOINT LeftHip
	{
		OFFSET	4.740440	-3.195970	-0.322709
		CHANNELS 3 Zrotation Xrotation Yrotation
		JOINT LeftKnee
		{
			OFFSET	-1.605680	-15.592300	1.005510
			CHANNELS 3 Zrotation Xrotation Yrotation
			JOINT LeftAnkle
			{
				OFFSET	-0.632401	-16.421000	-1.413730
				CHANNELS 3 Zrotation Xrotation Yrotation
				End Site
				{
					OFFSET	0.008423	-3.021750	-1.660875
				}
			}
		}
	}
	JOINT RightHip
	{
		OFFSET	-4.740440	-3.195970	-0.322709
		CHANNELS 3 Zrotation Xrotation Yrotation
		JOINT RightKnee
		{
			OFFSET	1.605680	-15.592300	1.005510
			CHANNELS 3 Zrotation Xrotation Yrotation
			JOINT RightAnkle
			{
				OFFSET	0.632401	-16.421000	-1.413730
				CHANNELS 3 Zrotation Xrotation Yrotation
				End Site
				{
					OFFSET	-0.008423	-3.021750	-1.660875
				}
			}
		}
	}
	JOINT Chest
	{
		OFFSET	0.000000	3.468200	0.078401
		CHANNELS 3 Zrotation Xrotation Yrotation
		JOINT LeftCollar
		{
			OFFSET	3.857650	15.070700	-0.011583
			CHANNELS 3 Zrotation Xrotation Yrotation
			JOINT LeftShoulder
			{
				OFFSET	3.979720	-1.940530	-0.165223
				CHANNELS 3 Zrotation Xrotation Yrotation
				JOINT LeftElbow
				{
					OFFSET	0.615844	-10.986600	-0.673886
					CHANNELS 3 Zrotation Xrotation Yrotation
					JOINT LeftWrist
					{
						OFFSET	0.826843	-10.854500	1.034220
						CHANNELS 3 Zrotation Xrotation Yrotation
						End Site
						{
							OFFSET	-1.679080	-8.456540	0.936217
						}
					}
				}
			}
		}
		JOINT RightCollar
		{
			OFFSET	-3.857650	15.070700	-0.011583
			CHANNELS 3 Zrotation Xrotation Yrotation
			JOINT RightShoulder
			{
				OFFSET	-3.979720	-1.940530	-0.165223
				CHANNELS 3 Zrotation Xrotation Yrotation
				JOINT RightElbow
				{
					OFFSET	-0.615845	-10.986600	-0.673886
					CHANNELS 3 Zrotation Xrotation Yrotation
					JOINT RightWrist
					{
						OFFSET	-0.826843	-10.854500	1.034220
						CHANNELS 3 Zrotation Xrotation Yrotation
						End Site
						{
							OFFSET	1.679080	-8.456540	0.936217
						}
					}
				}
			}
		}
		JOINT Neck
		{
			OFFSET	0.000000	15.101400	0.055730
			CHANNELS 3 Zrotation Xrotation Yrotation
			JOINT Head
			{
				OFFSET	0.000000	4.185120	1.488260
				CHANNELS 3 Zrotation Xrotation Yrotation
				End Site
				{
					OFFSET	0.000000	7.773420	-0.106016
				}
			}
		}
	}
}
MOTION
Frames:     10
Frame Time: 0.016667
0.684726	38.302151	0.003711	0.103123	0.407668	0.622356	-0.690303	-1.187784	0.365373	0.061955	1.391073	-0.791658	0.503586	-0.633024	-0.232406	-1.404668	-0.080154	0.962765	0.048969	-0.764220	-1.172581	1.125377	0.273902	-0.444407	-1.255598	1.086543	1.742560	9.187302	-6.048409	0.592674	67.797668	4.531875	9.622631	6.603527	4.881440	10.671980	17.440323	3.011513	-35.590939	-9.616720	-5.382205	-1.499558	-65.055817	12.553570	-21.934639	-11.198023	8.994481	15.497454	-6.983425	-1.369888	21.506340	2.162950	-4.556699	1.036265	1.019554	6.855354	-7.862587	
0.684726	38.302151	0.003711	0.103123	0.407668	0.622356	-0.690303	-1.187784	0.365373	0.061955	1.391073	-0.791658	0.503586	-0.633024	-0.232406	-1.404668	-0.080154	0.962765	0.048969	-0.764220	-1.172581	1.125377	0.273902	-0.444407	-1.255598	1.086543	1.742560	9.197637	-6.056991	0.580099	67.815994	4.487082	9.606310	6.585067	4.916995	10.678918	17.619379	3.051842	-35.642235	-9.611467	-5.378837	-1.506760	-65.030617	12.523233	-21.941967	-11.151090	9.007039	15.448175	-7.062446	-1.356439	21.547199	2.185159	-4.543611	0.983115	1.013434	6.834504	-7.858168	
0.684726	38.302151	0.003711	0.103123	0.407668	0.622356	-0.690303	-1.187784	0.365373	0.061955	1.391073	-0.791658	0.503586	-0.633024	-0.232406	-1.404668	-0.080154	0.962765	0.048969	-0.764220	-1.172581	1.125377	0.273902	-0.444407	-1.255598	1.086543	1.742560	9.229534	-6.083498	0.541307	67.858757	4.388535	9.565460	6.533788	4.953784	10.676895	17.808483	3.134012	-35.711079	-9.591109	-5.365814	-1.534593	-65.015282	12.465090	-21.950281	-11.111037	9.018039	15.444952	-6.968843	-1.321629	21.517534	2.219104	-4.536977	0.964668	1.013004	6.814412	-7.917367	
0.684726	38.302151	0.003711	0.103123	0.407668	0.622356	-0.690303	-1.187784	0.365373	0.061955	1.391073	-0.791658	0.503586	-0.633024	-0.232406	-1.404668	-0.080154	0.962765	0.048969	-0.764220	-1.172581	1.125377	0.273902	-0.444407	-1.255598	1.086543	1.742560	9.241470	-6.093412	0.526812	67.869713	4.366067	9.553576	6.518152	4.992344	10.678032	18.028147	3.124552	-35.767120	-9.581628	-5.359773	-1.547529	-64.991310	12.452323	-21.957275	-11.099388	9.004257	15.440425	-6.939326	-1.291985	21.501925	2.230134	-4.535036	0.959548	1.012285	6.808348	-7.935936	
0.684726	38.302151	0.003711	0.103123	0.407668	0.622356	-0.690303	-1.187784	0.365373	0.061955	1.391073	-0.791658	0.503586	-0.633024	-0.232406	-1.404668	-0.080154	0.962765	0.048969	-0.764220	-1.172581	1.125377	0.273902	-0.444407	-1.255598	1.086543	1.742560	9.281310	-6.126538	0.478348	67.910240	4.267331	9.508127	6.462729	5.037491	10.676085	18.261370	3.234674	-35.899399	-9.572650	-5.354060	-1.559775	-64.938293	12.478729	-21.947590	-11.064800	8.945375	15.487170	-6.590024	-1.124641	21.596071	2.237405	-4.531538	0.945852	1.004725	6.804641	-7.924758	
0.684726	38.302151	0.003711	0.103123	0.407668	0.622356	-0.690303	-1.187784	0.365373	0.061955	1.391073	-0.791658	0.503586	-0.633024	-0.232406	-1.404668	-0.080154	0.962765	0.048969	-0.764220	-1.172581	1.125377	0.273902	-0.444407	-1.255598	1.086543	1.742560	9.291999	-6.135434	0.465304	67.987793	4.099799	9.466188	6.404760	5.198733	10.683228	18.391062	3.195436	-36.126209	-9.563849	-5.348464	-1.571760	-64.930214	12.486166	-21.926620	-11.072125	8.923562	15.499349	-6.398072	-1.056289	21.677475	2.255214	-4.525640	0.924247	0.984122	6.799432	-7.901491	
0.684726	38.302151	0.003711	0.103123	0.407668	0.622356	-0.690303	-1.187784	0.365373	0.061955	1.391073	-0.791658	0.503586	-0.633024	-0.232406	-1.404668	-0.080154	0.962765	0.048969	-0.764220	-1.172581	1.125377	0.273902	-0.444407	-1.255598	1.086543	1.742560	9.310061	-6.130085	0.473575	68.020920	3.991139	9.447978	6.365877	5.156532	10.675134	18.490587	3.292691	-36.359200	-9.555642	-5.343262	-1.582928	-64.890480	12.534388	-21.860094	-11.083943	8.864305	15.455943	-5.815360	-0.808894	22.075626	2.274095	-4.504029	0.918805	0.970205	6.775800	-7.907842	
0.684726	38.302151	0.003711	0.103123	0.407668	0.622356	-0.690303	-1.187784	0.365373	0.061955	1.391073	-0.791658	0.503586	-0.633024	-0.232406	-1.404668	-0.080154	0.962765	0.048969	-0.764220	-1.172581	1.125377	0.273902	-0.444407	-1.255186	1.086804	1.737118	9.316897	-6.135004	0.470943	68.035080	3.963438	9.438430	6.350302	5.150873	10.672698	18.402151	3.219718	-36.457275	-9.547154	-5.339078	-1.589032	-64.886070	12.536960	-21.835098	-11.091215	8.849153	15.482323	-5.657593	-0.700583	22.166033	2.290686	-4.476215	0.921111	0.957887	6.746202	-7.914613	
0.684726	38.302151	0.003711	0.103123	0.407668	0.622356	-0.690303	-1.187784	0.365373	0.061955	1.391073	-0.791658	0.503586	-0.633024	-0.232406	-1.404668	-0.080154	0.962765	0.048969	-0.764220	-1.172581	1.125377	0.273902	-0.444407	-1.254117	1.087472	1.722918	9.368598	-6.138852	0.477928	67.982941	3.902668	9.429994	6.326865	5.097150	10.664979	18.235392	3.267140	-36.412025	-9.538418	-5.336643	-1.586702	-64.892204	12.522727	-21.749939	-11.097892	8.862348	15.556494	-5.318022	-0.325201	22.329367	2.299013	-4.448536	0.936236	0.962507	6.746936	-7.917039	
0.684726	38.302151	0.003711	0.103123	0.407668	0.622356	-0.690303	-1.187784	0.365373	0.061955	1.391073	-0.791658	0.503586	-0.633024	-0.232406	-1.404668	-0.080154	0.962765	0.048969	-0.764220	-1.172581	1.125377	0.273902	-0.444407	-1.253573	1.087817	1.715770	9.386689	-6.138166	0.485217	67.948700	3.837059	9.425076	6.324652	5.040693	10.656971	18.028152	3.351269	-36.304974	-9.529208	-5.332352	-1.592091	-64.900970	12.507484	-21.729332	-11.095765	8.866650	15.541723	-5.237888	-0.224753	22.371237	2.306495	-4.434950	0.942247	0.959103	6.743289	-7.915406	
